<?xml version="1.0" encoding="UTF-8"?>
<svg id="_レイヤー_1" data-name="レイヤー 1" xmlns="http://www.w3.org/2000/svg" viewBox="0 0 100 100">
  <defs>
    <style>
      .cls-1 {
        fill: #040000;
        stroke-width: 0px;
      }
    </style>
  </defs>
  <path class="cls-1" d="M71.65,32.94h-23.08c-3.64,0-6.59,2.95-6.59,6.59v46.32c0,3.64,2.95,6.59,6.59,6.59h23.08c3.64,0,6.59-2.95,6.59-6.59v-46.32c0-3.64-2.95-6.59-6.59-6.59ZM60.11,89.17c-.94,0-1.7-.76-1.7-1.7s.76-1.7,1.7-1.7,1.7.76,1.7,1.7-.76,1.7-1.7,1.7ZM72.66,82.2h-25.1v-41.83h25.1v41.83Z"/>
  <path class="cls-1" d="M96.55,19.65h-42.98c-1.9,0-3.46,1.56-3.46,3.46v6.46h3.46v-2.57h42.98v49.87h-14.93s0,7.34,0,7.34h14.93c1.9,0,3.45-1.56,3.45-3.46V23.1c0-1.9-1.55-3.46-3.45-3.46ZM75.06,24.7c-.52,0-.94-.42-.94-.93s.42-.93.94-.93.93.42.93.93-.42.93-.93.93Z"/>
  <path class="cls-1" d="M0,65.34C0,68.54,2.6,71.13,5.79,71.13h32.82v-8.79H0v3Z"/>
  <path class="cls-1" d="M10.28,52.1V13.45c0-.09.08-.17.17-.17h62.66c.09,0,.17.08.17.17v2.82h5.71V7.57H4.57v50.4h34.04v-5.71H10.44c-.09,0-.17-.07-.17-.17Z"/>
</svg>