<svg width="100" height="100" viewBox="0 0 100 100" fill="none" xmlns="http://www.w3.org/2000/svg">
<path d="M0 14C0 6.26801 6.26801 0 14 0V0C21.732 0 28 6.26801 28 14V14C28 21.732 21.732 28 14 28V28C6.26801 28 0 21.732 0 14V14Z" fill="#222234"/>
<path d="M0 50C0 42.268 6.26801 36 14 36V36C21.732 36 28 42.268 28 50V50C28 57.732 21.732 64 14 64V64C6.26801 64 0 57.732 0 50V50Z" fill="#222234"/>
<path d="M0 86C0 78.268 6.26801 72 14 72V72C21.732 72 28 78.268 28 86V86C28 93.732 21.732 100 14 100V100C6.26801 100 0 93.732 0 86V86Z" fill="#222234"/>
<path d="M72 14C72 6.26801 78.268 0 86 0V0C93.732 0 100 6.26801 100 14V14C100 21.732 93.732 28 86 28V28C78.268 28 72 21.732 72 14V14Z" fill="#222234"/>
<path d="M72 50C72 42.268 78.268 36 86 36V36C93.732 36 100 42.268 100 50V50C100 57.732 93.732 64 86 64V64C78.268 64 72 57.732 72 50V50Z" fill="#222234"/>
<path d="M72 86C72 78.268 78.268 72 86 72V72C93.732 72 100 78.268 100 86V86C100 93.732 93.732 100 86 100V100C78.268 100 72 93.732 72 86V86Z" fill="#222234"/>
<path d="M36 14C36 6.26801 42.268 0 50 0V0C57.732 0 64 6.26801 64 14V14C64 21.732 57.732 28 50 28V28C42.268 28 36 21.732 36 14V14Z" fill="#222234"/>
<path d="M36 50C36 42.268 42.268 36 50 36V36C57.732 36 64 42.268 64 50V50C64 57.732 57.732 64 50 64V64C42.268 64 36 57.732 36 50V50Z" fill="#222234"/>
<path d="M36 86C36 78.268 42.268 72 50 72V72C57.732 72 64 78.268 64 86V86C64 93.732 57.732 100 50 100V100C42.268 100 36 93.732 36 86V86Z" fill="#222234"/>
</svg>
